Coordinates
version=1
nRows=14
nColumns=36
inDegrees=yes

Units are S.I. units (second, meters, Newtons, ...)
If the header above contains a line with 'inDegrees', this indicates whether rotational values are in degrees (yes) or radians (no).

endheader
time	pelvis_tilt	pelvis_list	pelvis_rotation	pelvis_tx	pelvis_ty	pelvis_tz	hip_flexion_r	hip_adduction_r	hip_rotation_r	knee_angle_r	knee_angle_r_beta	ankle_angle_r	subtalar_angle_r	mtp_angle_r	hip_flexion_l	hip_adduction_l	hip_rotation_l	knee_angle_l	knee_angle_l_beta	ankle_angle_l	subtalar_angle_l	mtp_angle_l	lumbar_extension	lumbar_bending	lumbar_rotation	arm_flex_r	arm_add_r	arm_rot_r	elbow_flex_r	pro_sup_r	arm_flex_l	arm_add_l	arm_rot_l	elbow_flex_l	pro_sup_l
      0.00000000	      1.23515797	      0.04558860	      2.20687190	     -0.26263094	      0.91125101	     -0.22916115	     25.87060873	      0.24891291	     -3.63262715	      1.29620537	      0.02262305	      7.13786137	      2.46140774	     -5.60714118	    -24.14295442	      4.30047494	     -2.58973928	      5.96537598	      0.10411545	     16.08241594	      0.69610549	     -5.60714118	     -9.09409588	      2.25792764	     -6.09533476	     -7.25474249	     -5.01539223	    -18.95642249	     29.38936043	    108.26246482	     11.51791559	    -11.42694033	     13.17054964	     36.09334817	    105.49788192
      0.01000000	      1.07281493	     -0.34918158	      2.28762275	     -0.24711391	      0.90917729	     -0.22960942	     25.84379774	      0.78985541	     -3.45119484	      1.86895927	      0.03261949	      4.60829474	      0.43107202	     -5.69363554	    -24.55511644	      3.76396893	     -2.93323561	      6.66842607	      0.11638599	     15.48422336	      0.91076432	     -5.69363554	     -8.54385499	      3.09831698	     -6.31262871	     -7.45145662	     -4.85435695	    -20.43079912	     29.16466214	    108.58259732	     10.79732964	    -10.94110196	     11.55296854	     36.32417302	    105.80208256
      0.02000000	      0.89420517	     -0.76561825	      2.37362882	     -0.23148131	      0.90721874	     -0.23003344	     26.01570684	      1.30308399	     -3.91637525	      2.84673610	      0.04968492	      2.65343061	     -0.34840452	     -5.71540968	    -24.92625028	      3.19376350	     -3.30271680	      7.37531885	      0.12872360	     14.55772021	      0.97193863	     -5.71540968	     -7.94018868	      3.94849358	     -6.39325030	     -7.74896305	     -4.89590105	    -20.82208598	     28.80274740	    108.63020592	     10.28456283	    -10.60999352	     11.25337362	     36.22696034	    105.86663417
      0.03000000	      0.61830870	     -1.23033099	      2.35506645	     -0.21592678	      0.90536333	     -0.23011669	     26.13465090	      2.00158062	     -2.95099152	      3.52640099	      0.06154731	     -0.87807717	     -3.79343323	     -5.78951660	    -25.05226612	      2.59378286	     -3.73092612	      8.33735225	      0.14551425	     13.81718007	      1.12152939	     -5.78951660	     -7.24843662	      4.82242064	     -6.58238277	     -7.82562449	     -4.78070003	    -22.11246996	     28.37571469	    108.81226567	      9.55749352	    -10.09926747	      9.72737677	     36.19369627	    106.01186539
      0.04000000	      0.47691822	     -1.81652222	      2.32223377	     -0.20009220	      0.90407225	     -0.23027558	     26.37299316	      2.72057290	     -3.10843576	      4.87708926	      0.08512127	     -2.89713535	     -4.70170361	     -5.81433121	    -25.27702743	      1.86074624	     -4.29518648	      9.31104428	      0.16250838	     12.51225077	      1.07157891	     -5.81433121	     -6.72158691	      5.85608850	     -6.55881301	     -8.06167705	     -4.89656415	    -22.52388624	     28.09007148	    108.85987153	      8.98568773	     -9.69385768	      9.34375383	     36.08224275	    106.05630615
      0.05000000	      0.26799526	     -2.46485546	      2.18409144	     -0.18426895	      0.90310601	     -0.23001752	     26.49321385	      3.67851464	     -1.69482355	      5.93237435	      0.10353946	     -6.45364947	     -8.50055250	     -5.90677743	    -25.27126655	      1.09071710	     -4.75022776	     10.55377156	      0.18419806	     11.22363168	      0.83778604	     -5.90677743	     -6.14769493	      6.92639446	     -6.63009343	     -8.10467599	     -4.83585016	    -23.79006226	     27.83438602	    109.09561031	      8.19475355	     -9.09385879	      7.73345487	     36.07385767	    106.19589599
      0.06000000	      0.22743103	     -3.21530629	      2.02345785	     -0.16820926	      0.90282055	     -0.22982696	     26.74355314	      4.62898477	     -1.50400652	      7.79756244	      0.13609314	     -7.65856518	     -9.28233284	     -5.92557147	    -25.27817661	      0.18588090	     -5.45450678	     12.04017388	      0.21014068	      9.48104742	      0.58410196	     -5.92557147	     -5.77422482	      8.12864352	     -6.53911080	     -8.20457777	     -5.00915034	    -24.11936914	     27.56802624	    109.11512086	      7.58441985	     -8.61728454	      7.42974056	     35.76624436	    106.18763315
      0.07000000	      0.07261770	     -3.93896626	      1.75823908	     -0.15223778	      0.90282042	     -0.22926666	     26.97919989	      5.74497271	      0.07516604	      9.50654495	      0.16592051	    -10.25969499	    -12.96950218	     -6.00771729	    -24.97904604	     -0.64562962	     -5.80499820	     13.80969458	      0.24102464	      7.40733525	     -0.30444492	     -6.00771729	     -5.32688844	      9.25333719	     -6.48038572	     -8.18441823	     -5.00443527	    -25.35442520	     27.40988849	    109.28979754	      6.79581539	     -7.95139115	      5.90188370	     35.55258758	    106.20538092
      0.08000000	      0.05531028	     -4.71257409	      1.45331219	     -0.13615977	      0.90339537	     -0.22859174	     27.17341704	      6.91680751	      1.23968524	     11.62320401	      0.20286318	    -11.32099083	    -15.31241047	     -6.08581739	    -24.61199518	     -1.58026676	     -6.37034068	     15.89958196	      0.27750005	      4.97874895	     -1.07124908	     -6.08581739	     -5.06954623	     10.41347838	     -6.31116165	     -8.18453307	     -5.07864838	    -26.13751946	     27.31672544	    109.49895693	      6.08580782	     -7.38439733	      5.02140803	     35.26703283	    106.27628847
      0.09000000	      0.09825391	     -5.43556682	      1.08673023	     -0.12015360	      0.90440600	     -0.22774674	     27.28022339	      8.11100434	      2.49645048	     13.84018456	      0.24155679	    -11.78318082	    -17.55566442	     -6.15792131	    -24.06845204	     -2.47802843	     -6.87432909	     18.34328854	      0.32015078	      2.16381829	     -2.03345976	     -6.15792131	     -4.92943270	     11.48352282	     -6.07786231	     -8.13242042	     -5.13072065	    -26.88912582	     27.30130703	    109.66359856	      5.38753038	     -6.83355623	      4.18637111	     34.94293133	    106.31690835
      0.10000000	      0.32098219	     -6.14556067	      0.75735772	     -0.10423958	      0.90598334	     -0.22680494	     27.09813535	      9.30006052	      3.55700511	     16.01892264	      0.27958294	    -11.13353434	    -18.90532832	     -6.17296176	    -23.40741106	     -3.51938846	     -7.65154121	     21.25499663	      0.37096967	     -0.65819485	     -2.37011244	     -6.17296176	     -5.03837422	     12.47657141	     -5.80027432	     -8.07212455	     -5.21158887	    -27.12762887	     27.26088145	    109.68040567	      4.79688178	     -6.40470421	      3.89110848	     34.57769571	    106.28143193
      0.11000000	      0.28310820	     -6.74085124	      0.32606768	     -0.08847117	      0.90746511	     -0.22567852	     27.04317416	     10.45697756	      4.90399256	     17.99540916	      0.31407914	    -10.69697095	    -20.67086901	     -6.19530222	    -22.23962832	     -4.41672090	     -8.13412296	     24.41166021	      0.42606385	     -4.03222976	     -3.34628528	     -6.19530222	     -4.86919887	     13.32021403	     -5.44530928	     -8.05322287	     -5.23650720	    -27.61019275	     27.33334224	    109.69961605	      4.13688626	     -5.90716299	      3.26208814	     34.16162779	    106.22746427
      0.12000000	      0.37921696	     -7.12968371	     -0.03042918	     -0.07318671	      0.90940173	     -0.22461087	     26.62899218	     11.38400403	      6.11606660	     19.52637169	      0.34079948	    -10.81465230	    -22.77520254	     -6.24789195	    -20.93202351	     -5.07272973	     -8.06521666	     27.83548998	      0.48582095	     -8.07312971	     -5.43752988	     -6.24789195	     -4.90633477	     13.85473589	     -5.16175795	     -7.93071848	     -5.11323091	    -28.52090808	     27.61973038	    109.80668276	      3.56707923	     -5.44889816	      2.19019338	     33.84306338	    106.26725537
      0.13000000	      0.60552738	     -7.62431705	     -0.31211325	     -0.05812722	      0.91167176	     -0.22344303	     25.81280253	     12.34304024	      6.96081207	     20.57810587	      0.35915570	     -9.88310894	    -23.76779570	     -6.26257538	    -19.49395414	     -6.09571117	     -8.45359045	     31.61690546	      0.55181910	    -11.16469303	     -5.61977882	     -6.26257538	     -5.13176473	     14.45798683	     -4.80302333	     -7.78606527	     -5.08637499	    -28.65287116	     27.75228487	    109.85466858	      3.09737389	     -5.16446488	      1.94343692	     33.49996944	    106.27364409
